<?xml version="1.0" standalone="no"?>
<!DOCTYPE svg PUBLIC "-//W3C//DTD SVG 20010904//EN"
 "http://www.w3.org/TR/2001/REC-SVG-20010904/DTD/svg10.dtd">
<svg version="1.0" xmlns="http://www.w3.org/2000/svg"
 width="512.000000pt" height="512.000000pt" viewBox="0 0 512.000000 512.000000"
 preserveAspectRatio="xMidYMid meet">

<g transform="translate(0.000000,512.000000) scale(0.100000,-0.100000)"
fill="#262626" stroke="none">
<path d="M63 4994 c-68 -34 -80 -129 -22 -178 l31 -26 303 0 c186 0 306 -4
310 -10 3 -5 130 -629 281 -1387 208 -1041 283 -1396 305 -1452 86 -215 270
-384 504 -463 l70 -23 1365 -3 c751 -1 1376 0 1388 3 73 18 97 117 43 177
l-29 33 -1364 5 c-1491 6 -1383 1 -1513 68 -159 82 -253 223 -300 450 -14 67
-25 129 -25 137 0 13 184 15 1526 15 1694 0 1580 -4 1716 67 153 80 254 216
287 388 6 33 50 368 97 745 61 491 83 695 77 720 -5 23 -20 42 -42 57 l-34 23
-2017 0 -2017 0 -58 293 c-32 160 -64 305 -72 320 -27 54 -49 57 -430 57 -296
0 -353 -3 -380 -16z m4817 -885 c0 -57 -164 -1296 -176 -1332 -22 -66 -108
-157 -176 -188 l-53 -24 -1557 -3 c-857 -1 -1558 -1 -1558 1 0 2 -70 351 -155
776 -85 425 -155 774 -155 777 0 2 862 4 1915 4 1335 0 1915 -3 1915 -11z"/>
<path d="M1747 1205 c-169 -47 -319 -185 -379 -350 -26 -73 -35 -226 -18 -308
53 -256 315 -453 575 -434 478 36 696 605 360 942 -76 77 -157 125 -250 150
-72 18 -221 18 -288 0z m283 -236 c295 -138 236 -577 -84 -627 -149 -24 -292
52 -355 188 -81 176 8 387 191 452 74 26 175 21 248 -13z"/>
<path d="M3971 1204 c-86 -23 -171 -74 -243 -145 -185 -183 -219 -472 -80
-685 161 -246 459 -330 720 -202 137 67 262 227 292 375 17 82 8 235 -18 308
-61 168 -211 305 -383 350 -69 19 -218 18 -288 -1z m292 -238 c150 -73 225
-256 167 -407 -53 -141 -165 -220 -310 -221 -187 0 -331 143 -331 330 0 76 13
122 55 183 40 61 84 96 154 126 78 33 185 29 265 -11z"/>
</g>
</svg>
